<svg width="156" height="50" viewBox="0 0 156 50" fill="none" xmlns="http://www.w3.org/2000/svg">
<path d="M56.103 42H49.6402L58.0345 17.1207H66.0401L74.4345 42H67.9717L62.1284 23.3891H61.934L56.103 42ZM55.2404 32.2086H68.7491V36.7763H55.2404V32.2086ZM77.1131 42V23.3405H82.8835V26.742H83.0778C83.418 25.511 83.9728 24.5958 84.7421 23.9965C85.5115 23.3891 86.4064 23.0854 87.4269 23.0854C87.7022 23.0854 87.9857 23.1056 88.2772 23.1461C88.5688 23.1785 88.8401 23.2312 89.0912 23.304V28.467C88.8077 28.3698 88.4352 28.2929 87.9735 28.2362C87.52 28.1795 87.1151 28.1511 86.7587 28.1511C86.0541 28.1511 85.4184 28.3091 84.8515 28.6249C84.2927 28.9327 83.8513 29.366 83.5273 29.9248C83.2115 30.4755 83.0536 31.1234 83.0536 31.8685V42H77.1131ZM102.913 23.3405V27.7138H91.1412V23.3405H102.913ZM93.6072 18.87H99.5477V36.1325C99.5477 36.4969 99.6043 36.7925 99.7177 37.0193C99.8392 37.2379 100.013 37.3959 100.24 37.493C100.467 37.5821 100.738 37.6267 101.054 37.6267C101.281 37.6267 101.52 37.6064 101.771 37.5659C102.03 37.5173 102.224 37.4769 102.354 37.4445L103.253 41.7327C102.969 41.8137 102.568 41.915 102.05 42.0364C101.54 42.1579 100.928 42.2349 100.216 42.2673C98.8228 42.332 97.6283 42.1701 96.6321 41.7813C95.6441 41.3845 94.8868 40.769 94.3604 39.9348C93.8421 39.1006 93.591 38.0519 93.6072 36.7885V18.87ZM105.944 42V23.3405H111.884V42H105.944ZM108.92 21.166C108.086 21.166 107.369 20.8906 106.77 20.3399C106.17 19.7811 105.871 19.1089 105.871 18.3233C105.871 17.5458 106.17 16.8817 106.77 16.331C107.369 15.7722 108.086 15.4928 108.92 15.4928C109.762 15.4928 110.479 15.7722 111.07 16.331C111.669 16.8817 111.969 17.5458 111.969 18.3233C111.969 19.1089 111.669 19.7811 111.07 20.3399C110.479 20.8906 109.762 21.166 108.92 21.166ZM121.606 31.3582V42H115.665V23.3405H121.314V26.7663H121.521C121.934 25.6243 122.638 24.7294 123.634 24.0815C124.63 23.4255 125.817 23.0975 127.194 23.0975C128.506 23.0975 129.644 23.3931 130.607 23.9843C131.579 24.5675 132.332 25.3854 132.867 26.4383C133.41 27.483 133.677 28.7059 133.669 30.107V42H127.728V31.2732C127.736 30.2366 127.473 29.4267 126.939 28.8436C126.412 28.2605 125.679 27.9689 124.74 27.9689C124.116 27.9689 123.565 28.1066 123.088 28.382C122.618 28.6492 122.253 29.0339 121.994 29.536C121.743 30.0382 121.614 30.6456 121.606 31.3582ZM142.607 42.3159C141.416 42.3159 140.359 42.1174 139.436 41.7206C138.521 41.3157 137.796 40.7083 137.261 39.8984C136.735 39.0804 136.472 38.0559 136.472 36.8249C136.472 35.7883 136.654 34.9136 137.019 34.2009C137.383 33.4882 137.885 32.9092 138.525 32.4637C139.165 32.0183 139.902 31.6822 140.736 31.4554C141.57 31.2206 142.461 31.0626 143.408 30.9817C144.469 30.8845 145.324 30.7832 145.972 30.678C146.62 30.5646 147.089 30.4066 147.381 30.2042C147.681 29.9936 147.83 29.698 147.83 29.3174V29.2566C147.83 28.633 147.616 28.1511 147.187 27.811C146.757 27.4709 146.178 27.3008 145.449 27.3008C144.664 27.3008 144.032 27.4709 143.554 27.811C143.076 28.1511 142.773 28.6209 142.643 29.2202L137.164 29.0258C137.326 27.892 137.743 26.8796 138.416 25.9888C139.096 25.0898 140.027 24.3852 141.21 23.875C142.4 23.3567 143.83 23.0975 145.498 23.0975C146.688 23.0975 147.786 23.2393 148.79 23.5227C149.794 23.7981 150.669 24.203 151.414 24.7375C152.159 25.2639 152.734 25.9118 153.139 26.6812C153.552 27.4506 153.759 28.3293 153.759 29.3174V42H148.171V39.4003H148.025C147.693 40.032 147.267 40.5665 146.749 41.0039C146.239 41.4412 145.636 41.7692 144.939 41.9879C144.251 42.2065 143.473 42.3159 142.607 42.3159ZM144.441 38.4285C145.081 38.4285 145.656 38.2989 146.166 38.0397C146.684 37.7806 147.097 37.4242 147.405 36.9707C147.713 36.5091 147.867 35.9745 147.867 35.3671V33.5935C147.697 33.6826 147.49 33.7636 147.247 33.8365C147.012 33.9094 146.753 33.9782 146.47 34.043C146.186 34.1078 145.895 34.1645 145.595 34.2131C145.295 34.2616 145.008 34.3062 144.733 34.3467C144.174 34.4358 143.696 34.5735 143.299 34.7597C142.91 34.946 142.611 35.189 142.4 35.4886C142.198 35.7802 142.096 36.1284 142.096 36.5333C142.096 37.1489 142.315 37.6186 142.752 37.9425C143.198 38.2665 143.761 38.4285 144.441 38.4285Z" fill="white"/>
<path fill-rule="evenodd" clip-rule="evenodd" d="M38.3044 14.9795V2.63666H30.8749C23.4019 2.63666 16.2349 5.60531 10.9507 10.8896C5.66641 16.1738 2.69775 23.3408 2.69775 30.8138V42.7726C3.60787 42.7729 4.50915 42.594 5.3501 42.246C6.19105 41.898 6.9552 41.3877 7.59889 40.7443C8.24257 40.1008 8.75319 39.3369 9.10157 38.4961C9.44994 37.6553 9.62925 36.7541 9.62925 35.844V29.6156C9.62887 26.9823 10.1472 24.3747 11.1547 21.9418C12.1621 19.5088 13.6389 17.2981 15.5008 15.4359C17.3627 13.5738 19.5732 12.0966 22.006 11.0888C24.4388 10.081 27.0463 9.5623 29.6796 9.5623H31.3729V14.9795H38.3044Z" fill="white"/>
<path fill-rule="evenodd" clip-rule="evenodd" d="M30.2362 0C13.5709 0 0.0610352 13.5099 0.0610352 30.1751V41.6007C0.0610352 42.2479 0.585691 42.7726 1.23289 42.7726H1.25345V30.433C1.25345 14.2531 14.3699 1.13671 30.5497 1.13671H38.1462V0.878888C38.1462 0.393492 37.7527 0 37.2673 0H30.2362Z" fill="white"/>
<path d="M31.0168 16.487C30.8117 16.487 30.6037 16.487 30.3957 16.487C27.463 16.4877 24.6118 17.4521 22.2806 19.2316C19.9495 21.0111 18.2676 23.5072 17.4938 26.336C16.7199 29.1648 16.8969 32.1695 17.9975 34.8878C19.0981 37.6062 21.0614 39.8876 23.5853 41.3812C26.1092 42.8747 29.0539 43.4976 31.9664 43.1541C34.879 42.8106 37.5979 41.5196 39.7051 39.4798C41.8122 37.44 43.1908 34.7644 43.6287 31.8645C44.0667 28.9647 43.5397 26.0013 42.1289 23.4302H45.2519C47.0897 23.4263 48.8508 22.6927 50.1479 21.3907C51.4449 20.0887 52.1718 18.3248 52.1687 16.487H31.0168ZM30.3957 41.465C28.3897 41.4638 26.4182 40.9428 24.6734 39.9529C22.9286 38.9629 21.4701 37.5378 20.44 35.8163C19.41 34.0949 18.8435 32.136 18.7959 30.1305C18.7483 28.125 19.2211 26.1414 20.1683 24.373C21.1155 22.6047 22.5047 21.1119 24.2005 20.0403C25.8964 18.9686 27.8409 18.3546 29.8447 18.2582C31.8484 18.1618 33.8429 18.5862 35.6338 19.49C37.4247 20.3939 38.9509 21.7463 40.0635 23.4156C40.1572 23.5503 40.2422 23.688 40.3272 23.8286C41.3961 25.589 41.9776 27.6019 42.012 29.6611C42.0464 31.7203 41.5324 33.7515 40.5228 35.5466C39.5131 37.3416 38.0442 38.8357 36.2667 39.8758C34.4891 40.9158 32.4669 41.4643 30.4074 41.465H30.3957Z" fill="white"/>
<path fill-rule="evenodd" clip-rule="evenodd" d="M40.7624 29.8658C40.7624 35.5896 36.1223 40.2297 30.3985 40.2297C24.6747 40.2297 20.0347 35.5896 20.0347 29.8658C20.0347 24.142 24.6747 19.502 30.3985 19.502C36.1223 19.502 40.7624 24.142 40.7624 29.8658ZM23.5602 27.6871L29.5281 30.0079C30.0744 30.2204 30.6806 30.2204 31.227 30.0079L37.7384 27.4757C38.2365 27.282 38.2365 26.5772 37.7384 26.3835L31.227 23.8513C30.6806 23.6388 30.0744 23.6388 29.5281 23.8513L23.0166 26.3835C22.5185 26.5772 22.5185 27.282 23.0166 27.4757L23.2355 27.5608V33.26H23.5602V27.6871ZM23.2212 33.5846C23.0868 33.5846 22.9696 33.6761 22.937 33.8065L22.7687 34.4797C22.6762 34.8495 22.9559 35.2078 23.3371 35.2078H23.4594C23.8406 35.2078 24.1203 34.8495 24.0279 34.4797L23.8595 33.8065C23.8269 33.6761 23.7098 33.5846 23.5753 33.5846H23.2212ZM25.5081 29.42V31.6281C25.5081 32.6453 25.9698 33.6076 26.7633 34.2441C28.8751 35.9383 31.8802 35.9383 33.992 34.2441C34.7855 33.6076 35.2472 32.6453 35.2472 31.6281V29.4201L31.2273 30.9834C30.6809 31.1959 30.0748 31.1959 29.5284 30.9834L25.5081 29.42Z" fill="white"/>
</svg>
